# xmcd CD database file
#
# Track frame offsets:
#	150
#	15336
#	29982
#	47745
#	65074
#	79338
#	91415
#	106514
#	122677
#	137878
#	152142
#	167290
#
# Disc length: 2425 seconds
#
# Revision: 0
# Processed by: cddbd v1.5.2PL0 Copyright (c) Steve Scherf et al.
# Submitted via: CDex 1.70beta2
#
DISCID=9709770c
DTITLE=Belleruche - The Express
DYEAR=2008
DGENRE=Jazz
TTITLE0=Anything You Want (Not That)
TTITLE1=Backyard
TTITLE2=Idea Three
TTITLE3=Goose Blues
TTITLE4=Like 4 The Hard Way
TTITLE5=Rumble Strip
TTITLE6=How Many Times
TTITLE7=Scratch My Soul
TTITLE8=Late Train
TTITLE9=The Duck
TTITLE10=You're Listening to the Worlds
TTITLE11=Don't Let Them Push You Around
EXTD=YEAR: 2008
EXTT0=
EXTT1=
EXTT2=
EXTT3=
EXTT4=
EXTT5=
EXTT6=
EXTT7=
EXTT8=
EXTT9=
EXTT10=
EXTT11=
PLAYORDER=
